# xmcd
#
# Track frame offsets:
#	180
#	16898
#	33009
#	52211
#	69537
#	83630
#	104459
#	121110
#	138717
#	155067
#	170205
#	183493
#	203501
#	216550
#	232593
#
# Disc length: 3342 seconds
#
# Revision: 1
# Processed by: cddbd v1.5.1PL0 Copyright (c) Steve Scherf et al.
# Submitted via: audiograbber 1.83.01
#
DISCID=d00d0c0f
DTITLE=Sound Choice Country Hits Karaoke - SC-8173
DYEAR=1900
DGENRE=Karaoke
TTITLE0=Lorrie Morgan - I Didn't Know My Own Strength
TTITLE1=Clay Walker - My Heart Will Never Know
TTITLE2=John Anderson - Mississippi Moon
TTITLE3=Tracy Lawrence - Texas Tornado
TTITLE4=The Tractors - Badly Bent
TTITLE5=Little Texas - Southern Grace
TTITLE6=George Ducas - Hello Cruel World
TTITLE7=David Ball - What Do You Want With His Love
TTITLE8=James House - This Is Me Missing You
TTITLE9=Wesley Dennis - Borrowed Angel
TTITLE10=Chris LeDoux - Slow Down
TTITLE11=Shania Twain - Any Man Of Mine
TTITLE12=Leroy Parnell - A Little Bit Of You
TTITLE13=Bryan White - Someone Else's Star
TTITLE14=The Mavericks - All That Heaven Will Allow
EXTD=
EXTT0=
EXTT1=
EXTT2=
EXTT3=
EXTT4=
EXTT5=
EXTT6=
EXTT7=
EXTT8=
EXTT9=
EXTT10=
EXTT11=
EXTT12=
EXTT13=
EXTT14=
PLAYORDER=
